<svg width="142" height="48" viewBox="0 0 142 48" fill="none" xmlns="http://www.w3.org/2000/svg">
<path d="M0 1.82891C3.71262 1.82891 5.28454 4.40102 6.95298 7.1615L20.6176 30.4509C21.2623 31.612 21.8965 33.0162 21.8793 34.3314C21.8276 37.7563 17.3531 39.0098 14.6747 39.1263C12.7307 39.1924 10.7984 38.8016 9.03508 37.9858L7.94577 39.3866C8.58005 42.0717 11.0827 45.3356 14.523 45.3082C20.497 45.2671 23.6339 39.8284 26.0332 35.4171L30.48 27.2281L17.5807 5.23327C16.3879 3.26737 18.3459 1.83576 20.428 1.80836L20.89 0H0.475712L0 1.82891Z" fill="white"/>
<path d="M75.344 10.7405H77.0021C77.8743 10.7405 78.219 9.79179 78.219 9.15818C78.219 8.52457 77.8536 7.72657 76.9711 7.72657H75.3406V10.7405H75.344ZM73.3722 12.3776V2.89746H75.344V6.11002H76.7229C79.036 6.11002 80.2631 7.51423 80.2425 9.12736C80.2218 10.7405 79.0773 12.3776 76.747 12.3776H73.3516H73.3722Z" fill="white"/>
<path d="M135.622 17.162C136.342 17.6954 137.217 17.9836 138.116 17.9836C139.014 17.9836 139.889 17.6954 140.61 17.162L139.817 16.0044C139.327 16.3725 138.73 16.5717 138.116 16.5717C137.501 16.5717 136.904 16.3725 136.414 16.0044L135.622 17.162ZM141.999 28.3614V18.9224H140.065L136.163 25.3441V18.9224H134.246V28.3614H136.163L140.058 21.9569V28.3614H141.992H141.999Z" fill="white"/>
<path d="M73.2987 21.597V22.7718H70.3548V21.7443C70.3548 20.9018 71.0856 20.4223 71.9336 20.4223C72.4542 20.4223 73.3125 20.7648 73.3125 21.6107L73.2987 21.597ZM75.4946 27.2618L74.6638 25.7788C73.933 26.4197 72.9978 26.7836 72.0233 26.8063C71.0787 26.8063 70.3479 26.2891 70.3479 25.2719V24.3883H75.2843V22.0868C75.2843 19.6894 73.7572 18.7715 71.9267 18.7715C69.824 18.7715 68.3555 19.8435 68.3555 22.1964V25.3439C68.3555 27.4502 69.7343 28.5085 71.8681 28.5085C73.4263 28.5119 74.3846 28.0084 75.4946 27.2618Z" fill="white"/>
<path d="M67.6823 42.7531H69.3403C70.2125 42.7531 70.5572 42.0681 70.5572 41.4276C70.5682 41.2641 70.543 41.1002 70.4835 40.9474C70.424 40.7946 70.3315 40.6566 70.2126 40.543C70.0937 40.4294 69.9513 40.3431 69.7952 40.29C69.6392 40.2369 69.4733 40.2184 69.3093 40.2358H67.6788V42.7497L67.6823 42.7531ZM67.6823 36.5883V38.6261H69.1025C69.2385 38.6397 69.3759 38.6229 69.5045 38.5769C69.6331 38.531 69.7498 38.457 69.846 38.3605C69.9421 38.264 70.0154 38.1473 70.0603 38.019C70.1052 37.8908 70.1207 37.7541 70.1056 37.6192C70.1126 37.4876 70.0927 37.356 70.0471 37.2322C70.0015 37.1085 69.9312 36.9952 69.8404 36.8992C69.7495 36.8032 69.6401 36.7265 69.5186 36.6736C69.3971 36.6208 69.2661 36.5929 69.1335 36.5917H67.6823V36.5883ZM65.7105 44.3868V34.9546H69.1025C71.4328 34.9546 72.1636 36.3656 72.1291 37.4445C72.1357 37.8362 72.0303 38.2217 71.8253 38.5563C71.6203 38.8909 71.3241 39.1609 70.9709 39.335C71.4447 39.4919 71.8561 39.7945 72.1455 40.199C72.4349 40.6035 72.5873 41.089 72.5807 41.5852C72.5807 42.9552 71.5672 44.3936 69.2335 44.3936H65.707L65.7105 44.3868Z" fill="white"/>
<path d="M124.703 34.9546V36.5711H127.106L127.102 44.4142H127.23H129.036H129.16V36.5711H131.56V34.9546H124.703Z" fill="white"/>
<path d="M109.733 1.15761C110.454 1.69105 111.328 1.97918 112.227 1.97918C113.126 1.97918 114 1.69105 114.721 1.15761L113.928 0C113.438 0.368094 112.841 0.567276 112.227 0.567276C111.613 0.567276 111.016 0.368094 110.526 0L109.733 1.15761ZM116.11 12.357V2.918H114.176L110.26 9.35336V2.918H108.344V12.357H110.278L114.173 5.95245V12.357H116.107H116.11Z" fill="white"/>
<path d="M51.5727 9.42907C51.5727 10.251 50.7454 10.7511 49.9939 10.7511C49.3831 10.7358 48.7876 10.5571 48.2703 10.2339V5.13767C48.7916 4.7101 49.4423 4.46887 50.118 4.45269C50.305 4.44536 50.4916 4.47519 50.6668 4.54041C50.8421 4.60563 51.0025 4.70495 51.1386 4.83253C51.2747 4.96011 51.3838 5.1134 51.4595 5.28342C51.5353 5.45343 51.5761 5.63676 51.5796 5.82265V9.42907H51.5727ZM53.5652 9.22358V5.96649C53.5652 3.91155 52.4621 2.74708 50.4179 2.74708C49.6458 2.74708 48.3186 3.05533 47.7774 3.49371C47.6312 3.15877 47.3644 2.89008 47.0294 2.74023L45.8125 3.85675C46.2744 4.16499 46.2882 4.76778 46.2882 5.03492V15.4124H48.26V12.0971C48.8955 12.3577 49.5754 12.4948 50.2628 12.5012C52.1139 12.5046 53.5652 11.3504 53.5652 9.22358V9.22358Z" fill="white"/>
<path d="M59.8532 10.1858C59.6104 10.4593 59.2993 10.6644 58.9513 10.7804C58.6034 10.8965 58.2308 10.9194 57.8711 10.8468C57.6102 10.7858 57.3768 10.641 57.2073 10.4348C57.0378 10.2285 56.9415 9.97248 56.9334 9.70633C56.9208 9.51222 56.9499 9.31767 57.0189 9.13562C57.0878 8.95357 57.195 8.78819 57.3333 8.65049C57.4715 8.51279 57.6377 8.40592 57.8208 8.337C58.0039 8.26807 58.1996 8.23867 58.395 8.25074H59.8532V10.1892V10.1858ZM71.3564 12.3572V2.89762H64.8481V8.7542C64.8481 9.94607 64.1001 10.9393 63.0556 10.9667C62.5696 10.9667 61.8284 10.6584 61.8284 9.93922V5.94578C61.8284 3.99016 60.7943 2.74692 58.5674 2.74692C57.3348 2.7238 56.1429 3.18541 55.2512 4.03126L56.2853 5.3019C56.8516 4.77968 57.5825 4.46863 58.3537 4.4217C59.0086 4.4217 59.8359 4.70939 59.8359 5.58959V6.59651H58.2192C55.9062 6.59651 54.9375 8.05552 54.9375 9.58988C54.9375 11.066 55.751 12.5045 58.0848 12.5045C58.9031 12.4711 59.6828 12.1494 60.2841 11.5969C60.6545 11.9468 61.0957 12.2143 61.5784 12.3814C62.0611 12.5486 62.5741 12.6115 63.0832 12.5661C65.3273 12.4976 66.7682 11.2955 66.7096 8.69255V4.51417H69.4225V12.3572H71.3564Z" fill="white"/>
<path d="M97.4602 12.3639L93.9269 7.37038L97.2293 2.91801H94.9817L92.5101 6.62033H91.2967V2.89746H89.3594V12.3639H91.2588L91.276 8.23688H92.4791L95.2058 12.3639H97.4602Z" fill="white"/>
<path d="M88.1053 11.3023L87.2952 9.87756C86.1748 10.6619 85.5026 10.905 84.9408 10.905C84.1514 10.905 83.362 10.5009 83.362 9.67892V5.9903C83.362 5.14777 84.1479 4.55184 85.0545 4.55184C85.8036 4.61122 86.5009 4.95459 87.0022 5.51081L88.0363 4.21962C87.6557 3.74355 87.1672 3.36356 86.6106 3.11061C86.0541 2.85766 85.4454 2.73891 84.8339 2.76404C82.8862 2.76404 81.3867 3.95248 81.3867 6.00057V9.54877C81.3867 11.5592 82.9517 12.5045 84.8787 12.5045C86.0692 12.4974 87.2182 12.0688 88.1191 11.2955" fill="white"/>
<path d="M106.345 12.357V2.91797H104.411L100.495 9.35336V2.91797H98.582V12.357H100.495H100.516L104.411 5.95243V12.357H106.345Z" fill="white"/>
<path d="M45.7621 0H43.5559L41.8495 5.62709C41.8185 5.72983 41.7771 5.84285 41.753 5.96958C41.7289 6.0963 41.7047 6.17507 41.6944 6.25384C41.6841 6.33261 41.6737 6.37371 41.6737 6.37714C41.6737 6.38056 41.6737 6.33604 41.653 6.26069C41.6324 6.18534 41.6186 6.09287 41.5944 5.98327C41.5726 5.87317 41.5402 5.76538 41.4979 5.66134L38.978 0H36.7305L40.7637 8.80538L40.5086 9.44241C40.1845 10.1479 39.3365 10.9254 37.8129 10.9905L38.0542 12.518C40.288 12.5659 41.7599 11.5795 42.3321 9.92874L45.7621 0Z" fill="white"/>
<path d="M132.235 18.9229H130.301V28.3619H132.235V18.9229Z" fill="white"/>
<path d="M124.321 26.7659H125.979C126.851 26.7659 127.196 25.8172 127.196 25.1836C127.196 24.55 126.83 23.752 125.948 23.752H124.317V26.7659H124.321ZM122.349 28.403V18.9229H124.321V22.1354H125.699C128.013 22.1354 129.24 23.5396 129.219 25.1527C129.198 26.7659 128.054 28.403 125.724 28.403H122.328H122.349Z" fill="white"/>
<path d="M45.9117 25.4367C45.9103 25.6193 45.8712 25.7997 45.7968 25.9668C45.7225 26.1338 45.6144 26.2839 45.4794 26.4078C45.3443 26.5317 45.1852 26.6267 45.0117 26.6871C44.8382 26.7475 44.6541 26.7718 44.4708 26.7587C44.2505 26.7811 44.0281 26.7451 43.8265 26.6542C43.6248 26.5634 43.451 26.421 43.3228 26.2416V21.3303V21.1282C43.4763 20.944 43.6692 20.7961 43.8874 20.6954C44.1057 20.5946 44.3439 20.5436 44.5845 20.546C44.7637 20.5416 44.9417 20.5746 45.1072 20.6429C45.2728 20.7111 45.422 20.8131 45.5455 20.9421C45.6689 21.0712 45.7637 21.2246 45.8238 21.3923C45.8839 21.56 45.908 21.7384 45.8944 21.9159V25.4367H45.9117ZM41.3683 21.0494V21.1659V26.2416C41.2401 26.421 41.0663 26.5634 40.8647 26.6542C40.663 26.7451 40.4407 26.7811 40.2204 26.7587C40.0382 26.7699 39.8555 26.7441 39.6837 26.6828C39.5118 26.6216 39.3543 26.5262 39.2208 26.4025C39.0873 26.2788 38.9805 26.1294 38.907 25.9633C38.8335 25.7973 38.7948 25.6181 38.7932 25.4367V21.8269C38.7797 21.649 38.8038 21.4704 38.8641 21.3024C38.9245 21.1344 39.0196 20.9809 39.1434 20.8518C39.2672 20.7227 39.4169 20.6208 39.5828 20.5528C39.7487 20.4847 39.9272 20.4521 40.1066 20.4569C40.3482 20.4555 40.5869 20.5081 40.8053 20.6106C41.0236 20.7132 41.216 20.8631 41.3683 21.0494V21.0494ZM47.9179 25.2346V21.9741C47.9179 19.9192 46.9665 18.7547 44.9223 18.7547C44.3719 18.755 43.8308 18.8953 43.3504 19.1623V17.3813H41.3683V19.1623C40.8878 18.8956 40.3467 18.7553 39.7964 18.7547C37.7522 18.7547 36.8008 19.9226 36.8008 21.9741V25.2312C36.8008 27.3581 38.1004 28.5123 39.9515 28.5123C40.4509 28.4981 40.9385 28.3578 41.3683 28.1047V31.4063H43.3401V28.1047C43.7703 28.3565 44.2578 28.4955 44.7569 28.5089C46.608 28.5123 47.9179 27.3581 47.9179 25.2312V25.2346Z" fill="white"/>
<path d="M54.5448 21.597V22.7718H51.6009V21.7443C51.6009 20.9018 52.3317 20.4223 53.1797 20.4223C53.7003 20.4223 54.5586 20.7648 54.5586 21.6107L54.5448 21.597ZM56.7613 27.2755L55.9306 25.7925C55.1997 26.4334 54.2646 26.7973 53.29 26.82C52.3455 26.82 51.6147 26.3028 51.6147 25.2856V24.3883H56.5338V22.0868C56.5338 19.6894 55.0067 18.7715 53.1728 18.7715C51.0701 18.7715 49.6016 19.8435 49.6016 22.1964V25.3439C49.6016 27.4502 50.9804 28.5085 53.1142 28.5085C54.6827 28.5119 55.6272 28.0084 56.7476 27.2618L56.7613 27.2755Z" fill="white"/>
<path d="M60.6068 26.7688C61.0929 26.2414 61.3962 25.2345 61.3721 24.207V20.5492H64.085V26.7688H60.6068ZM66.0189 26.7688V18.9258H59.4934V24.1419C59.4934 25.3303 58.8039 26.7414 57.7457 26.7688H57.5664V30.6766H59.4451V28.3888H65.1709V30.68H67.1013V26.7688H66.0189V26.7688Z" fill="white"/>
<path d="M120.349 28.3619V18.9229H118.411V22.6115H114.499V18.9229H112.582V28.3619H114.499V24.228H118.411V28.3619H120.349Z" fill="white"/>
<path d="M82.4512 25.4535C82.4512 26.2754 81.6239 26.7755 80.8724 26.7755C80.2615 26.7602 79.6661 26.5815 79.1488 26.2583V21.1758C79.6702 20.7484 80.3208 20.5072 80.9965 20.4908C81.1835 20.4835 81.37 20.5133 81.5453 20.5785C81.7205 20.6437 81.8809 20.743 82.017 20.8706C82.1531 20.9982 82.2622 21.1515 82.338 21.3215C82.4137 21.4915 82.4546 21.6749 82.4581 21.8607V25.4535H82.4512ZM84.4436 25.248V21.9909C84.4436 19.9359 83.3405 18.7715 81.2964 18.7715C80.5242 18.7715 79.197 19.0797 78.6558 19.5181C78.506 19.1877 78.2383 18.9242 77.9044 18.7783L76.6875 19.8949C77.1494 20.2031 77.1667 20.8059 77.1667 21.073V31.4231H79.1384V28.1249C79.774 28.3854 80.4538 28.5226 81.1413 28.529C82.9924 28.529 84.454 27.3783 84.454 25.2514L84.4436 25.248Z" fill="white"/>
<path d="M90.7321 26.2141C90.0047 27.1491 87.8399 27.269 87.8123 25.7346C87.7991 25.5396 87.828 25.3441 87.8971 25.1611C87.9662 24.9781 88.074 24.8119 88.2131 24.6738C88.3522 24.5356 88.5194 24.4285 88.7036 24.3599C88.8877 24.2912 89.0846 24.2625 89.2808 24.2756H90.739V26.2141H90.7321ZM102.249 28.3855V18.9225H95.727V24.7825C95.727 25.9744 94.979 26.9676 93.9345 26.995C93.4485 26.995 92.7073 26.6867 92.7073 25.9675V21.9741C92.7073 20.0185 91.6732 18.7752 89.4463 18.7752C88.2137 18.7525 87.022 19.214 86.1301 20.0596L87.1643 21.3302C87.7305 20.808 88.4614 20.4969 89.2326 20.45C89.8875 20.45 90.7148 20.7377 90.7148 21.6179V22.6248H89.0981C86.7851 22.6248 85.8164 24.0838 85.8164 25.6182C85.8164 27.0943 86.6299 28.5328 88.9637 28.5328C89.782 28.4994 90.5617 28.1777 91.163 27.6252C91.5335 27.9749 91.9748 28.2423 92.4574 28.4094C92.9401 28.5765 93.453 28.6396 93.9621 28.5944C96.2062 28.5225 97.6471 27.3203 97.5885 24.7208V20.5493H100.312V28.3923H102.242L102.249 28.3855Z" fill="white"/>
<path d="M106.223 26.7659H107.895C108.767 26.7659 109.112 25.8172 109.112 25.1836C109.112 24.55 108.747 23.752 107.864 23.752H106.234V26.7659H106.223ZM104.252 28.403V18.9229H106.223V22.1354H107.602C109.919 22.1354 111.143 23.5396 111.125 25.1527C111.108 26.7659 109.96 28.403 107.63 28.403H104.234H104.252Z" fill="white"/>
<path d="M44.9465 34.9546H42.7989L40.8547 42.2907C40.8492 41.8353 40.7772 41.3831 40.6409 40.9482L38.9863 34.9512L36.8008 34.9717C36.8008 34.9717 39.3482 42.9689 39.9446 44.3697C39.6516 45.606 38.9725 46.4246 37.5316 46.565L37.7177 48.0001C39.9032 48.0001 41.1442 46.8287 41.5958 45.3869L44.9465 34.9546Z" fill="white"/>
<path d="M53.9466 44.3936V34.9546H52.0128V38.6398H48.0968V34.9546H46.1836V44.3936H48.0968V40.2598H52.0128V44.3936H53.9466Z" fill="white"/>
<path d="M63.7084 44.3936V34.9546H61.7745L57.8585 41.39V34.9546H55.9453V44.3936H57.8585H57.8792L61.7745 37.989V44.3936H63.7084Z" fill="white"/>
<path d="M108.93 34.9546V36.5711H111.329V44.4142H111.453H113.259H113.383V36.5711H115.786V34.9546H108.93Z" fill="white"/>
<path d="M107.493 44.3936V34.9546H105.56L101.644 41.39V34.9546H99.7305V44.3936H101.644H101.664L105.56 37.989V44.3936H107.493Z" fill="white"/>
<path d="M88.0371 41.4657C88.0371 42.2876 87.2098 42.7877 86.4583 42.7877C85.8474 42.7723 85.252 42.5937 84.7347 42.2705V37.1845C85.256 36.757 85.9067 36.5157 86.5824 36.4995C86.7694 36.4922 86.956 36.522 87.1312 36.5873C87.3064 36.6525 87.4668 36.7518 87.6029 36.8794C87.7391 37.007 87.8482 37.1603 87.9239 37.3303C87.9997 37.5003 88.0405 37.6836 88.044 37.8695V41.4794L88.0371 41.4657ZM90.0296 41.2602V38.0168C90.0296 35.9618 88.9265 34.7974 86.8823 34.7974C86.1101 34.7974 84.783 35.1056 84.2418 35.544C84.0929 35.2121 83.825 34.9472 83.4903 34.8008L82.2734 35.9173C82.7354 36.2255 82.7491 36.8283 82.7491 37.0955V47.4353H84.7244V44.1371C85.3599 44.3977 86.0397 44.5349 86.7272 44.5412C88.5921 44.5241 90.0296 43.387 90.0296 41.2602V41.2602Z" fill="white"/>
<path d="M98.4695 43.3111L97.6594 41.8863C96.539 42.6706 95.8668 42.9138 95.3084 42.9138C94.519 42.9138 93.7296 42.5097 93.7296 41.6877V38.0162C93.7296 37.1737 94.519 36.5777 95.4256 36.5777C96.1746 36.6374 96.8718 36.9808 97.3733 37.5367L98.4074 36.2455C98.0267 35.7694 97.5382 35.3894 96.9817 35.1365C96.4252 34.8835 95.8164 34.7648 95.205 34.7899C93.2573 34.7899 91.7578 35.9784 91.7578 38.0265V41.5712C91.7578 43.5816 93.3228 44.5269 95.2532 44.5269C96.4438 44.5199 97.5927 44.0912 98.4936 43.3179" fill="white"/>
<path d="M121.728 37.6058V38.7805H118.785V37.7531C118.785 36.9105 119.515 36.431 120.363 36.431C120.884 36.431 121.742 36.7735 121.742 37.6195L121.728 37.6058ZM123.945 43.2843L123.097 41.7842C122.366 42.4251 121.431 42.789 120.456 42.8116C119.512 42.8116 118.781 42.2945 118.781 41.2773V40.4142H123.717V38.1127C123.717 35.7152 122.19 34.7974 120.356 34.7974C118.254 34.7974 116.785 35.8694 116.785 38.2223V41.3663C116.785 43.4726 118.164 44.5309 120.298 44.5309C121.866 44.5241 122.811 44.0172 123.931 43.2706L123.945 43.2843Z" fill="white"/>
<path d="M78.9414 37.6058V38.7805H75.9975V37.7531C75.9975 36.9105 76.7283 36.431 77.5763 36.431C78.0969 36.431 78.9552 36.7735 78.9552 37.6195L78.9414 37.6058ZM81.1579 43.2843L80.2927 41.7842C79.5619 42.4251 78.6267 42.789 77.6522 42.8116C76.7076 42.8116 75.9768 42.2945 75.9768 41.2773V40.4142H80.9132V38.1127C80.9132 35.7152 79.3861 34.7974 77.5556 34.7974C75.4529 34.7974 73.9844 35.8694 73.9844 38.2223V41.3663C73.9844 43.4726 75.3632 44.5309 77.497 44.5309C79.0621 44.5241 80.0066 44.0172 81.1269 43.2706L81.1579 43.2843Z" fill="white"/>
</svg>
